<?xml version="1.0" encoding="UTF-8" standalone="no"?>
<!-- Created with Inkscape (http://www.inkscape.org/) -->

<svg
   xmlns:dc="http://purl.org/dc/elements/1.1/"
   xmlns:cc="http://creativecommons.org/ns#"
   xmlns:rdf="http://www.w3.org/1999/02/22-rdf-syntax-ns#"
   xmlns:svg="http://www.w3.org/2000/svg"
   xmlns="http://www.w3.org/2000/svg"
   xmlns:sodipodi="http://sodipodi.sourceforge.net/DTD/sodipodi-0.dtd"
   xmlns:inkscape="http://www.inkscape.org/namespaces/inkscape"
   width="89.656357"
   height="59.090672"
   viewBox="0 0 89.656358 59.090673"
   id="svg3406"
   version="1.1"
   inkscape:version="0.91 r13725"
   sodipodi:docname="belgium.svg">
  <defs
     id="defs3408" />
  <sodipodi:namedview
     id="base"
     pagecolor="#ffffff"
     bordercolor="#666666"
     borderopacity="1.0"
     inkscape:pageopacity="0.0"
     inkscape:pageshadow="2"
     inkscape:zoom="2.86"
     inkscape:cx="99.82818"
     inkscape:cy="8.0308691"
     inkscape:document-units="px"
     inkscape:current-layer="layer1"
     showgrid="false"
     units="px"
     fit-margin-top="0"
     fit-margin-left="0"
     fit-margin-right="0"
     fit-margin-bottom="0"
     inkscape:window-width="761"
     inkscape:window-height="659"
     inkscape:window-x="433"
     inkscape:window-y="108"
     inkscape:window-maximized="0" />
  <metadata
     id="metadata3411">
    <rdf:RDF>
      <cc:Work
         rdf:about="">
        <dc:format>image/svg+xml</dc:format>
        <dc:type
           rdf:resource="http://purl.org/dc/dcmitype/StillImage" />
        <dc:title></dc:title>
      </cc:Work>
    </rdf:RDF>
  </metadata>
  <g
     inkscape:label="Layer 1"
     inkscape:groupmode="layer"
     id="layer1"
     transform="translate(-275.17182,-282.81687)">
    <g
       id="layer1-5"
       inkscape:label="Layer 1"
       transform="translate(-34.28571,8.5714257)">
      <path
         inkscape:connector-curvature="0"
         id="path4"
         d="m 398.71453,274.24544 -88.85764,0 c -0.19968,0 -0.39936,0.20446 -0.39936,0.40893 l 0,58.27281 c 0,0.20446 0.19968,0.40893 0.39936,0.40893 l 88.85764,0 c 0.19968,0 0.39936,-0.20447 0.39936,-0.40893 l 0,-58.27281 c 0,-0.20447 -0.19968,-0.40893 -0.39936,-0.40893 z m -28.95361,1.22679 1.59744,0 -1.59744,1.63573 0,-1.63573 z m 0,2.04466 1.9968,-2.04466 1.59744,0 -3.59424,3.68039 0,-1.63573 z m 0,2.04466 3.9936,-4.08932 1.59744,0 -5.59104,5.72505 0,-1.63573 z m 0,2.04466 5.9904,-6.13398 1.39776,0 -7.38816,7.76971 0,-1.63573 z m 0,2.04466 7.78752,-8.17864 1.59744,0 -9.38496,9.81437 0,-1.63573 z m 0,2.04466 9.78432,-10.2233 1.79712,0 -11.58144,11.85903 c 0,0 0,-1.63573 0,-1.63573 z m 0,2.04466 11.9808,-12.26796 1.59744,0 -13.57824,13.90369 0,-1.63573 z m 0,2.04466 13.9776,-14.31262 1.59744,0 -15.57504,15.94835 0,-1.63573 z m 0,2.04466 15.9744,-16.35728 1.79712,0 -17.77152,17.99301 c 0,0 0,-1.63573 0,-1.63573 z m 0,2.04466 18.17088,-18.40194 1.39776,0 -19.56864,20.03767 c 0,0 0,-1.63573 0,-1.63573 z m 0,2.04466 19.968,-20.4466 1.59744,0 -21.56544,22.2868 0,-1.8402 z m 0,2.24913 21.9648,-22.69573 1.59744,0 -23.56224,24.12699 0,-1.43126 z m 0,1.84019 23.96161,-24.53592 1.59744,0 -25.55905,26.17165 0,-1.63573 z m 0,2.04466 25.95841,-26.58058 1.79711,0 -27.75552,28.42078 0,-1.8402 z m -1.19808,30.26097 -28.35458,0 0,-56.84155 28.35458,0 0,56.84155 z m 29.55264,0 -1.59744,0 1.59744,-1.43126 0,1.43126 z m 0,-1.84019 -1.99679,1.84019 -1.59744,0 3.59423,-3.68039 0,1.8402 z m 0,-2.24913 -3.99359,4.08932 -1.59744,0 5.59103,-5.72505 0,1.63573 z m 0,-2.04466 -5.9904,6.13398 -1.59744,0 7.58784,-7.76971 0,1.63573 z m 0,-2.04466 -7.9872,8.17864 -1.59744,0 9.58464,-9.81437 0,1.63573 z m 0,-2.04466 -9.984,10.2233 -1.59744,0 11.58144,-12.06349 0,1.84019 z m 0,-2.24912 -11.9808,12.47242 -1.59744,0 13.57824,-14.10815 0,1.63573 z m 0,-2.04466 -13.9776,14.51708 -1.79712,0 15.77472,-16.15281 0,1.63573 z m 0,-2.04466 -16.17408,16.56174 -1.39776,0 17.57184,-18.19747 0,1.63573 z m 0,-2.04466 -17.9712,18.6064 -1.59744,0 19.56864,-20.24213 0,1.63573 z m 0,-2.04466 -19.968,20.65106 -1.79712,0 21.76512,-22.28679 0,1.63573 z m 0,-2.04466 -22.16448,22.69572 -1.39776,0 23.56224,-24.33145 0,1.63573 z m 0,-2.04466 -23.9616,24.74038 -1.59744,0 25.55904,-26.37611 0,1.63573 z m 0,-2.04466 -25.9584,26.78504 -1.59744,0 27.55584,-28.42077 0,1.63573 z m 0,-2.04466 -27.9552,28.8297 -0.39936,0 0,-1.2268 28.35456,-29.23863 0,1.63573 z m 0,-2.04466 -28.35456,29.23863 0,-1.84019 28.35456,-29.03417 0,1.63573 z m 0,-2.04467 -28.35456,29.03418 0,-1.63573 28.35456,-29.03417 0,1.63572 z m 0,-2.04466 -28.35456,29.03418 0,-1.63573 28.35456,-29.03417 0,1.63572 z m 0,-2.04466 -28.35456,29.03418 0,-1.63573 28.35456,-29.03417 0,1.63572 z m 0,-2.04466 -28.35456,29.03418 0,-1.63573 28.35456,-29.03417 0,1.63572 z m 0,-2.04466 -28.35456,29.03418 0,-1.63573 28.35456,-29.03417 0,1.63572 z m 0,-2.04466 -28.35456,29.03418 0,-1.63573 28.35456,-29.03417 0,1.63572 z m 0,-2.04466 -28.35456,29.03418 0,-1.63573 28.35456,-29.03417 0,1.63572 z m 0,-2.04466 -28.35456,29.03418 0,-1.63573 28.35456,-29.03417 0,1.63572 z m 0,-2.04466 -28.35456,29.03418 0,-1.63573 28.35456,-29.03417 0,1.63572 z m 0,-2.04466 -28.35456,29.03418 0,-1.63573 28.35456,-29.03417 0,1.63572 z m 0,-2.04466 -28.35456,29.03418 0,-1.8402 28.35456,-28.8297 0,1.63572 z m 0,-2.04466 -28.35456,28.82971 0,-1.43126 28.15488,-28.82971 0.19968,0 0,1.43126 z" />
    </g>
  </g>
</svg>
