<?xml version="1.0" encoding="UTF-8" standalone="no"?>
<!-- Created with Inkscape (http://www.inkscape.org/) -->

<svg
   xmlns:dc="http://purl.org/dc/elements/1.1/"
   xmlns:cc="http://creativecommons.org/ns#"
   xmlns:rdf="http://www.w3.org/1999/02/22-rdf-syntax-ns#"
   xmlns:svg="http://www.w3.org/2000/svg"
   xmlns="http://www.w3.org/2000/svg"
   xmlns:sodipodi="http://sodipodi.sourceforge.net/DTD/sodipodi-0.dtd"
   xmlns:inkscape="http://www.inkscape.org/namespaces/inkscape"
   width="90"
   height="59"
   viewBox="0 0 89.999999 59.000001"
   id="svg3460"
   version="1.1"
   inkscape:version="0.91 r13725"
   sodipodi:docname="uk.svg">
  <defs
     id="defs3462" />
  <sodipodi:namedview
     id="base"
     pagecolor="#ffffff"
     bordercolor="#666666"
     borderopacity="1.0"
     inkscape:pageopacity="0.0"
     inkscape:pageshadow="2"
     inkscape:zoom="3.29"
     inkscape:cx="175.46327"
     inkscape:cy="-43.520049"
     inkscape:document-units="px"
     inkscape:current-layer="layer1"
     showgrid="false"
     inkscape:window-width="1920"
     inkscape:window-height="1029"
     inkscape:window-x="0"
     inkscape:window-y="0"
     inkscape:window-maximized="1"
     units="px"
     fit-margin-top="0"
     fit-margin-left="0"
     fit-margin-right="0"
     fit-margin-bottom="0" />
  <metadata
     id="metadata3465">
    <rdf:RDF>
      <cc:Work
         rdf:about="">
        <dc:format>image/svg+xml</dc:format>
        <dc:type
           rdf:resource="http://purl.org/dc/dcmitype/StillImage" />
        <dc:title></dc:title>
      </cc:Work>
    </rdf:RDF>
  </metadata>
  <g
     inkscape:label="Layer 1"
     inkscape:groupmode="layer"
     id="layer1"
     transform="translate(-187.17972,-156.28335)">
    <g
       id="uk"
       transform="matrix(0.99411488,0,0,0.9252126,182.20915,139.5362)">
      <desc
         id="desc3416">uk flag</desc>
      <title
         id="title3414">uk</title>
      <g
         id="g10">
        <polygon
           style="fill:#000000"
           points="5,77.55 5,58.2 30.3,58.2 "
           id="polygon12" />
        <polygon
           style="fill:#000000"
           points="35.92,58.2 39.71,58.2 8.74,81.87 5,81.87 "
           id="polygon14" />
        <polygon
           style="fill:#000000"
           points="41.8,81.87 16.15,81.87 41.8,62.27 "
           id="polygon16" />
        <polygon
           style="fill:#000000"
           points="58.19,81.87 58.19,62.27 83.84,81.87 "
           id="polygon18" />
        <polygon
           style="fill:#000000"
           points="64.07,58.2 95,81.87 91.25,81.87 60.28,58.2 "
           id="polygon20" />
        <polygon
           style="fill:#000000"
           points="95,77.55 69.69,58.2 95,58.2 "
           id="polygon22" />
        <polygon
           style="fill:#000000"
           points="69.69,41.8 95,22.45 95,41.81 69.69,41.81 "
           id="polygon24" />
        <polygon
           style="fill:#000000"
           points="91.25,18.13 95,18.13 64.07,41.8 60.28,41.8 "
           id="polygon26" />
        <polygon
           style="fill:#000000"
           points="58.19,37.73 58.19,18.13 83.84,18.13 "
           id="polygon28" />
        <polygon
           style="fill:#000000"
           points="44.98,18.13 50,18.13 55.01,18.13 55.01,44.98 95,44.98 95,50 95,55.02 55.01,55.02 55.01,81.87 50,81.87 44.98,81.87 44.98,55.02 5,55.02 5,50 5,44.98 44.98,44.98 "
           id="polygon30" />
        <polygon
           style="fill:#000000"
           points="5,22.45 30.3,41.8 30.3,41.81 5,41.81 "
           id="polygon32" />
        <polygon
           style="fill:#000000"
           points="8.74,18.13 39.71,41.8 35.92,41.8 5,18.13 "
           id="polygon34" />
        <polygon
           style="fill:#000000"
           points="41.8,37.73 16.15,18.13 41.8,18.13 "
           id="polygon36" />
      </g>
    </g>
  </g>
</svg>
